HIERARCHY
ROOT hip
{
  OFFSET 73.279 98.5902 98.6645
  CHANNELS 6 Xposition Yposition Zposition Zrotation Xrotation Yrotation
  JOINT abdomen
  {
    OFFSET 0 20.6881 -0.73152
    CHANNELS 3 Zrotation Xrotation Yrotation
    JOINT chest
    {
      OFFSET 0 11.7043 -0.48768
      CHANNELS 3 Zrotation Xrotation Yrotation
      JOINT neck
      {
        OFFSET 0 22.1894 -2.19456
        CHANNELS 3 Zrotation Xrotation Yrotation
        JOINT head
        {
          OFFSET -0.24384 7.07133 1.2192
          CHANNELS 3 Zrotation Xrotation Yrotation
          JOINT leftEye
          {
            OFFSET 4.14528 8.04674 8.04672
            CHANNELS 3 Zrotation Xrotation Yrotation
            End Site
            {
              OFFSET 1 0 0
            }
          }
          JOINT rightEye
          {
            OFFSET -3.6576 8.04674 8.04672
            CHANNELS 3 Zrotation Xrotation Yrotation
            End Site
            {
              OFFSET 1 0 0
            }
          }
        }
      }
      JOINT rCollar
      {
        OFFSET -2.68224 19.2634 -4.8768
        CHANNELS 3 Zrotation Xrotation Yrotation
        JOINT rShldr
        {
          OFFSET -8.77824 -1.95073 1.46304
          CHANNELS 3 Zrotation Xrotation Yrotation
          JOINT rForeArm
          {
            OFFSET -28.1742 -1.7115 0.48768
            CHANNELS 3 Zrotation Xrotation Yrotation
            JOINT rHand
            {
              OFFSET -22.5879 0.773209 7.07136
              CHANNELS 3 Zrotation Xrotation Yrotation
              JOINT rThumb1
              {
                OFFSET -1.2192 -0.487915 3.41376
                CHANNELS 3 Zrotation Xrotation Yrotation
                JOINT rThumb2
                {
                  OFFSET -3.37035 -0.52449 3.41376
                  CHANNELS 3 Zrotation Xrotation Yrotation
                  End Site
                  {
                    OFFSET -1.78271 -1.18214 1.43049
                  }
                }
              }
              JOINT rIndex1
              {
                OFFSET -7.75947 0.938293 5.60832
                CHANNELS 3 Zrotation Xrotation Yrotation
                JOINT rIndex2
                {
                  OFFSET -2.54057 -0.884171 1.56538
                  CHANNELS 3 Zrotation Xrotation Yrotation
                  End Site
                  {
                    OFFSET -1.62519 -0.234802 1.16502
                  }
                }
              }
              JOINT rMid1
              {
                OFFSET -8.24714 1.18213 3.41376
                CHANNELS 3 Zrotation Xrotation Yrotation
                JOINT rMid2
                {
                  OFFSET -3.10165 -0.590103 1.0647
                  CHANNELS 3 Zrotation Xrotation Yrotation
                  End Site
                  {
                    OFFSET -2.48547 -0.328903 0.83742
                  }
                }
              }
              JOINT rRing1
              {
                OFFSET -8.82822 0.546677 1.51678
                CHANNELS 3 Zrotation Xrotation Yrotation
                JOINT rRing2
                {
                  OFFSET -2.60934 -0.819778 -0.0198488
                  CHANNELS 3 Zrotation Xrotation Yrotation
                  End Site
                  {
                    OFFSET -2.33842 -0.294052 0.168128
                  }
                }
              }
              JOINT rPinky1
              {
                OFFSET -8.27202 -0.0477905 -0.4584
                CHANNELS 3 Zrotation Xrotation Yrotation
                JOINT rPinky2
                {
                  OFFSET -1.82734 -0.647385 -0.700984
                  CHANNELS 3 Zrotation Xrotation Yrotation
                  End Site
                  {
                    OFFSET -1.69225 -0.51767 -0.607171
                  }
                }
              }
            }
          }
        }
      }
      JOINT lCollar
      {
        OFFSET 2.68224 19.2634 -4.8768
        CHANNELS 3 Zrotation Xrotation Yrotation
        JOINT lShldr
        {
          OFFSET 8.77824 -1.95073 1.46304
          CHANNELS 3 Zrotation Xrotation Yrotation
          JOINT lForeArm
          {
            OFFSET 28.1742 -1.7115 0.48768
            CHANNELS 3 Zrotation Xrotation Yrotation
            JOINT lHand
            {
              OFFSET 22.5879 0.773209 7.07136
              CHANNELS 3 Zrotation Xrotation Yrotation
              JOINT lThumb1
              {
                OFFSET 1.2192 -0.487915 3.41376
                CHANNELS 3 Zrotation Xrotation Yrotation
                JOINT lThumb2
                {
                  OFFSET 3.37035 -0.52449 3.41376
                  CHANNELS 3 Zrotation Xrotation Yrotation
                  End Site
                  {
                    OFFSET 1.78271 -1.18214 1.43049
                  }
                }
              }
              JOINT lIndex1
              {
                OFFSET 7.75947 0.938293 5.60832
                CHANNELS 3 Zrotation Xrotation Yrotation
                JOINT lIndex2
                {
                  OFFSET 2.54057 -0.884171 1.56538
                  CHANNELS 3 Zrotation Xrotation Yrotation
                  End Site
                  {
                    OFFSET 1.62519 -0.234802 1.16502
                  }
                }
              }
              JOINT lMid1
              {
                OFFSET 8.24714 1.18213 3.41376
                CHANNELS 3 Zrotation Xrotation Yrotation
                JOINT lMid2
                {
                  OFFSET 3.10165 -0.590103 1.0647
                  CHANNELS 3 Zrotation Xrotation Yrotation
                  End Site
                  {
                    OFFSET 2.48547 -0.328903 0.83742
                  }
                }
              }
              JOINT lRing1
              {
                OFFSET 8.82822 0.546677 1.51678
                CHANNELS 3 Zrotation Xrotation Yrotation
                JOINT lRing2
                {
                  OFFSET 2.60934 -0.819778 -0.0198488
                  CHANNELS 3 Zrotation Xrotation Yrotation
                  End Site
                  {
                    OFFSET 2.33842 -0.294052 0.168128
                  }
                }
              }
              JOINT lPinky1
              {
                OFFSET 8.27202 -0.0477905 -0.4584
                CHANNELS 3 Zrotation Xrotation Yrotation
                JOINT lPinky2
                {
                  OFFSET 1.82734 -0.647385 -0.700984
                  CHANNELS 3 Zrotation Xrotation Yrotation
                  End Site
                  {
                    OFFSET 1.69225 -0.51767 -0.607171
                  }
                }
              }
            }
          }
        }
      }
    }
  }
  JOINT rButtock
  {
    OFFSET -8.77824 4.35084 1.2192
    CHANNELS 3 Zrotation Xrotation Yrotation
    JOINT rThigh
    {
      OFFSET 0 -1.70687 -2.19456
      CHANNELS 3 Zrotation Xrotation Yrotation
      JOINT rShin
      {
        OFFSET 0 -36.8199 0.73152
        CHANNELS 3 Zrotation Xrotation Yrotation
        JOINT rFoot
        {
          OFFSET 0.73152 -45.1104 -5.12064
          CHANNELS 3 Zrotation Xrotation Yrotation
          End Site
          {
            OFFSET -1.1221 -3.69964 12.103
          }
        }
      }
    }
  }
  JOINT lButtock
  {
    OFFSET 8.77824 4.35084 1.2192
    CHANNELS 3 Zrotation Xrotation Yrotation
    JOINT lThigh
    {
      OFFSET 0 -1.70687 -2.19456
      CHANNELS 3 Zrotation Xrotation Yrotation
      JOINT lShin
      {
        OFFSET 0 -36.8199 0.73152
        CHANNELS 3 Zrotation Xrotation Yrotation
        JOINT lFoot
        {
          OFFSET -0.73152 -45.1104 -5.12064
          CHANNELS 3 Zrotation Xrotation Yrotation
          End Site
          {
            OFFSET 1.1221 -3.69964 12.103
          }
        }
      }
    }
  }
}
MOTION
Frames:	8
Frame Time:	0.00833333
54.4801 82.4483 114.278 15.6636 -33.6879 -172.145 -4.68698 5.85913 -7.55784 0.177991 4.68407 -1.75144 -0.407308 14.2732 -4.4891 1.38086 -19.829 -8.12805 -0 0 0 -0 0 0 -7.3194e-014 1.13399e-014 1.31415e-014 41.8385 21.2414 17.5482 -21.0965 -14.456 41.4145 -0.173456 -11.7827 -1.67995 6.68984e-009 -7.89744e-009 -5.08956e-009 1.16236e-008 -1.37186e-008 -8.75528e-009 6.68984e-009 -7.89744e-009 -5.08957e-009 7.73091 5.47488 0.417314 6.68983e-009 -7.89745e-009 -5.08955e-009 2.90554 0.965183 0.102902 6.68984e-009 -7.89745e-009 -5.08955e-009 10.2786 0.731801 0.0259123 6.68983e-009 -7.89745e-009 -5.08954e-009 2.22167 -0.733487 -0.20892 -7.33151e-014 1.13209e-014 1.28899e-014 -52.8292 32.0031 -16.6866 24.1957 -19.4669 -50.2375 0.157179 -11.2372 1.60001 -3.04426e-009 6.28771e-009 8.45462e-009 -5.34532e-009 1.07781e-008 1.45889e-008 -3.04426e-009 6.28772e-009 8.45463e-009 -7.73091 5.47488 -0.417314 -3.04427e-009 6.2877e-009 8.45462e-009 -2.90554 0.965183 -0.102902 -3.04426e-009 6.28771e-009 8.45462e-009 -10.2786 0.731801 -0.0259123 -3.04426e-009 6.28771e-009 8.45461e-009 -2.22167 -0.733487 0.20892 -2.03217e-016 0 -3.88251e-019 -82.4358 -74.4484 -69.7145 -1.66099 68.0595 2.55007 -4.99503 -24.2137 -9.58001 2.03217e-016 0 3.88251e-019 22.1674 -36.1717 -6.73212 -0.0499276 26.1812 -1.26926 -6.79958 11.5898 34.4928 
54.8581 82.9084 114.214 15.6627 -33.6591 -171.985 -4.69025 5.69211 -7.36017 0.300603 4.81272 -1.71381 -0.348702 14.1917 -4.41841 1.21128 -19.572 -8.00657 -0 0 0 -0 0 0 -3.03517e-014 3.62626e-014 2.189e-014 41.9278 21.6473 17.6105 -21.0401 -14.3784 41.2703 -0.16828 -11.6086 -1.65443 7.63587e-009 -9.08528e-009 -6.06011e-009 1.32684e-008 -1.57806e-008 -1.04282e-008 7.63588e-009 -9.08529e-009 -6.06012e-009 7.73091 5.47488 0.417314 7.63588e-009 -9.08529e-009 -6.06011e-009 2.90554 0.965183 0.102902 7.63588e-009 -9.0853e-009 -6.06011e-009 10.2786 0.731801 0.0259123 7.63586e-009 -9.08529e-009 -6.0601e-009 2.22167 -0.733487 -0.20892 -3.04783e-014 3.62435e-014 2.16108e-014 -53.4015 32.1931 -16.0776 24.1653 -19.4089 -50.1395 0.149348 -10.9555 1.5589 -3.91806e-009 7.3423e-009 1.03454e-008 -6.87152e-009 1.25817e-008 1.78482e-008 -3.91807e-009 7.34231e-009 1.03454e-008 -7.73091 5.47488 -0.417314 -3.91807e-009 7.3423e-009 1.03454e-008 -2.90554 0.965183 -0.102902 -3.91807e-009 7.3423e-009 1.03454e-008 -10.2786 0.731801 -0.0259123 -3.91807e-009 7.34231e-009 1.03454e-008 -2.22167 -0.733487 0.20892 -2.03217e-016 0 -3.88251e-019 -79.3475 -74.5503 -66.9414 -1.56549 67.1727 2.43794 -4.74493 -24.1945 -9.1894 2.03217e-016 0 3.88251e-019 22.0551 -37.1634 -4.79144 -0.00572546 28.786 -1.29039 -6.09371 10.7874 34.798 
55.237 83.3462 114.092 15.6197 -33.6457 -171.792 -4.67957 5.50012 -7.03154 0.336905 4.99329 -1.63295 -0.161279 14.0777 -4.38401 1.06514 -19.3438 -7.96371 -0 0 0 -0 0 0 1.59636e-014 5.40784e-014 1.76421e-014 42.1739 21.9405 17.6372 -20.9697 -14.2823 41.0891 -0.162259 -11.4057 -1.6247 7.84636e-009 -9.35612e-009 -6.35003e-009 1.36347e-008 -1.62504e-008 -1.0929e-008 7.84637e-009 -9.35613e-009 -6.35004e-009 7.73091 5.47488 0.417314 7.84636e-009 -9.35613e-009 -6.35003e-009 2.90554 0.965183 0.102902 7.84637e-009 -9.35613e-009 -6.35003e-009 10.2786 0.731801 0.0259123 7.84635e-009 -9.35613e-009 -6.35002e-009 2.22167 -0.733487 -0.20892 1.58431e-014 5.40599e-014 1.7344e-014 -53.7537 32.4655 -15.6279 24.12 -19.3231 -49.9914 0.14361 -10.7406 1.5276 -4.28413e-009 7.59726e-009 1.09869e-008 -7.50889e-009 1.30164e-008 1.89533e-008 -4.28413e-009 7.59728e-009 1.09869e-008 -7.73091 5.47488 -0.417314 -4.28413e-009 7.59727e-009 1.09869e-008 -2.90554 0.965183 -0.102902 -4.28413e-009 7.59727e-009 1.09869e-008 -10.2786 0.731801 -0.0259123 -4.28413e-009 7.59727e-009 1.09869e-008 -2.22167 -0.733487 0.20892 -2.03217e-016 0 -3.88251e-019 -76.1502 -74.6737 -64.092 -1.47689 66.2807 2.3309 -4.50285 -24.1461 -8.81242 2.03217e-016 0 3.88251e-019 21.9539 -38.1313 -3.09583 0.0403034 31.4012 -1.31195 -5.5712 10.2816 35.0281 
55.5896 83.7772 113.945 15.5243 -33.6545 -171.544 -4.6622 5.30008 -6.41276 0.18632 5.27195 -1.45575 0.330119 13.8301 -4.4342 0.917729 -19.1168 -8.11205 -0 0 0 -0 0 0 8.01541e-014 6.46879e-014 -1.25549e-014 42.7518 21.948 17.5714 -20.8758 -14.1553 40.8478 -0.154738 -11.1491 -1.58715 6.86906e-009 -8.11909e-009 -5.53911e-009 1.19365e-008 -1.41024e-008 -9.53403e-009 6.86906e-009 -8.1191e-009 -5.53912e-009 7.73091 5.47488 0.417314 6.86906e-009 -8.1191e-009 -5.53912e-009 2.90554 0.965183 0.102902 6.86907e-009 -8.1191e-009 -5.53911e-009 10.2786 0.731801 0.0259123 6.86905e-009 -8.1191e-009 -5.5391e-009 2.22167 -0.733487 -0.20892 8.00593e-014 6.46708e-014 -1.28659e-014 -53.616 32.9279 -15.5474 24.0514 -19.1941 -49.7687 0.140181 -10.6109 1.50874 -3.86533e-009 6.53443e-009 9.60393e-009 -6.77134e-009 1.11945e-008 1.65672e-008 -3.86533e-009 6.53444e-009 9.60394e-009 -7.73091 5.47488 -0.417314 -3.86532e-009 6.53444e-009 9.60393e-009 -2.90554 0.965183 -0.102902 -3.86533e-009 6.53444e-009 9.60393e-009 -10.2786 0.731801 -0.0259123 -3.86533e-009 6.53444e-009 9.60392e-009 -2.22167 -0.733487 0.20892 -2.03217e-016 0 -3.88251e-019 -72.8051 -74.8417 -61.1473 -1.39504 65.3845 2.22838 -4.26791 -24.0789 -8.44293 2.03217e-016 0 3.88251e-019 21.8703 -39.0823 -1.67647 0.0867482 34.0428 -1.33289 -5.33955 10.2077 35.2361 
55.976 84.2307 113.845 15.3891 -33.6722 -171.25 -4.64324 5.09863 -5.57235 -0.112746 5.62268 -1.20509 1.07992 13.4785 -4.54812 0.74941 -18.8813 -8.40853 -0 0 0 -0 0 0 1.58018e-013 7.01787e-014 -6.36204e-014 43.602 21.7528 17.4315 -20.7576 -13.9964 40.5482 -0.145869 -10.8336 -1.5411 4.94532e-009 -5.69686e-009 -3.8866e-009 8.59345e-009 -9.89642e-009 -6.69013e-009 4.94532e-009 -5.69687e-009 -3.88661e-009 7.73091 5.47488 0.417314 4.94532e-009 -5.69687e-009 -3.8866e-009 2.90554 0.965183 0.102902 4.94532e-009 -5.69687e-009 -3.8866e-009 10.2786 0.731801 0.0259123 4.94531e-009 -5.69687e-009 -3.88658e-009 2.22167 -0.733487 -0.20892 1.57961e-013 7.01633e-014 -6.39403e-014 -53.0796 33.5477 -15.7548 23.9604 -19.0241 -49.4792 0.13778 -10.5212 1.49569 -2.82995e-009 4.47062e-009 6.71124e-009 -4.95408e-009 7.65882e-009 1.15778e-008 -2.82995e-009 4.47063e-009 6.71125e-009 -7.73091 5.47488 -0.417314 -2.82994e-009 4.47062e-009 6.71124e-009 -2.90554 0.965183 -0.102902 -2.82995e-009 4.47062e-009 6.71124e-009 -10.2786 0.731801 -0.0259123 -2.82995e-009 4.47062e-009 6.71123e-009 -2.22167 -0.733487 0.20892 -2.03217e-016 0 -3.88251e-019 -69.287 -75.0232 -58.0677 -1.31882 64.4751 2.12958 -4.03305 -23.9972 -8.07068 2.03217e-016 0 3.88251e-019 21.7611 -40.0422 -0.504175 0.137052 36.7546 -1.35636 -5.2071 10.2465 35.5385 
56.3493 84.6698 113.788 15.2281 -33.6927 -170.952 -4.59471 4.85094 -4.81791 -0.365892 5.96111 -0.983023 1.7273 13.2288 -4.63258 0.633912 -18.7071 -8.63083 -0 0 0 -0 0 0 2.20301e-013 6.92084e-014 -1.10221e-013 44.377 21.6824 17.3297 -20.6347 -13.8322 40.2411 -0.137465 -10.5186 -1.49526 2.91167e-009 -3.17687e-009 -2.14352e-009 5.0593e-009 -5.52021e-009 -3.69018e-009 2.91167e-009 -3.17688e-009 -2.14353e-009 7.73091 5.47488 0.417314 2.91166e-009 -3.17688e-009 -2.14352e-009 2.90554 0.965183 0.102902 2.91167e-009 -3.17688e-009 -2.14351e-009 10.2786 0.731801 0.0259123 2.91166e-009 -3.17688e-009 -2.1435e-009 2.22167 -0.733487 -0.20892 2.20282e-013 6.91957e-014 -1.10539e-013 -52.6786 34.112 -15.8439 23.8623 -18.8425 -49.1734 0.136215 -10.4637 1.48731 -1.67532e-009 2.33407e-009 3.66721e-009 -2.92945e-009 3.99916e-009 6.32747e-009 -1.67531e-009 2.33407e-009 3.66722e-009 -7.73091 5.47488 -0.417314 -1.67531e-009 2.33407e-009 3.66721e-009 -2.90554 0.965183 -0.102902 -1.67532e-009 2.33408e-009 3.66721e-009 -10.2786 0.731801 -0.0259123 -1.67532e-009 2.33407e-009 3.66721e-009 -2.22167 -0.733487 0.20892 -2.03217e-016 0 -3.88251e-019 -65.6285 -75.1774 -54.8491 -1.24774 63.557 2.03467 -3.80765 -23.8748 -7.71811 2.03217e-016 0 3.88251e-019 21.581 -41.0109 0.43343 0.192079 39.4676 -1.38334 -5.09119 10.3215 35.7179 
56.7075 85.0438 113.675 15.0554 -33.7105 -170.693 -4.49199 4.51381 -4.45678 -0.375191 6.20296 -0.891928 1.91391 13.2864 -4.59474 0.641474 -18.6643 -8.55765 -0 0 0 -0 0 0 2.37752e-013 6.04352e-014 -1.27023e-013 44.7318 22.065 17.3774 -20.5279 -13.6904 39.9771 -0.130971 -10.2637 -1.45826 1.60464e-009 -1.64654e-009 -1.0609e-009 2.78791e-009 -2.86133e-009 -1.82708e-009 1.60464e-009 -1.64655e-009 -1.06092e-009 7.73091 5.47488 0.417314 1.60463e-009 -1.64655e-009 -1.0609e-009 2.90554 0.965183 0.102902 1.60464e-009 -1.64655e-009 -1.0609e-009 10.2786 0.731801 0.0259123 1.60463e-009 -1.64655e-009 -1.06088e-009 2.22167 -0.733487 -0.20892 2.37757e-013 6.04263e-014 -1.27322e-013 -52.965 34.4105 -15.3964 23.7737 -18.6803 -48.9012 0.13532 -10.4304 1.48248 -8.98758e-010 1.05304e-009 1.8302e-009 -1.56976e-009 1.80535e-009 3.1587e-009 -8.98756e-010 1.05304e-009 1.83021e-009 -7.73091 5.47488 -0.417314 -8.98747e-010 1.05304e-009 1.8302e-009 -2.90554 0.965183 -0.102902 -8.98762e-010 1.05305e-009 1.8302e-009 -10.2786 0.731801 -0.0259123 -8.98756e-010 1.05304e-009 1.8302e-009 -2.22167 -0.733487 0.20892 -2.03217e-016 0 -3.88251e-019 -61.8965 -75.2637 -51.5224 -1.18124 62.6343 1.94375 -3.60149 -23.6854 -7.40789 2.03217e-016 0 3.88251e-019 21.2848 -41.9869 1.14865 0.25273 42.113 -1.41456 -4.90683 10.3585 35.5563 
57.0546 85.4333 113.566 14.8707 -33.7314 -170.473 -4.30641 4.00002 -4.78374 0.0586739 6.29106 -1.03157 1.26178 13.9273 -4.32595 0.885631 -18.9066 -7.93176 -0 0 0 -0 0 0 1.91999e-013 3.9087e-014 -9.73319e-014 44.2722 23.2764 17.755 -20.4412 -13.5767 39.7629 -0.127231 -10.1117 -1.43623 1.33155e-009 -1.5778e-009 -9.71209e-010 2.31367e-009 -2.73822e-009 -1.67334e-009 1.33156e-009 -1.5778e-009 -9.71222e-010 7.73091 5.47488 0.417314 1.33155e-009 -1.5778e-009 -9.71211e-010 2.90554 0.965183 0.102902 1.33156e-009 -1.5778e-009 -9.71207e-010 10.2786 0.731801 0.0259123 1.33154e-009 -1.5778e-009 -9.71189e-010 2.22167 -0.733487 -0.20892 1.92015e-013 3.90853e-014 -9.75738e-014 -54.5055 34.2204 -13.9535 23.7101 -18.5644 -48.7102 0.135327 -10.4305 1.48248 -6.9901e-010 1.07138e-009 1.84336e-009 -1.22439e-009 1.83764e-009 3.18009e-009 -6.99008e-010 1.07138e-009 1.84337e-009 -7.73091 5.47488 -0.417314 -6.98999e-010 1.07138e-009 1.84336e-009 -2.90554 0.965183 -0.102902 -6.99013e-010 1.07138e-009 1.84336e-009 -10.2786 0.731801 -0.0259123 -6.99006e-010 1.07138e-009 1.84335e-009 -2.22167 -0.733487 0.20892 -2.03217e-016 0 -3.88251e-019 -58.1479 -75.2853 -48.1389 -1.11953 61.714 1.85663 -3.41259 -23.3831 -7.14522 2.03217e-016 0 3.88251e-019 20.8282 -42.9914 1.56966 0.319259 44.7068 -1.45092 -4.59607 10.2906 34.9718 
